# xmcd
#
# Track frame offsets: 
#        150
#        14569
#        28099
#        41886
#        55940
#        73152
#        88189
#        100971
#        115320
#        126799
#        148949
#        164033
#        180103
#        194543
#        208819
#        226173
#        239972
#        255923
#        268407
#        281545
#
# Disc length: 3965 seconds
#
# Revision: 1
# Processed by: cddbd v1.5.2PL0 Copyright (c) Steve Scherf et al.
# Submitted via: ExactAudioCopyFreeDBPlugin 1.0
#
DISCID=3c0f7b14
DTITLE=Lacy J. Dalton - Survivor and Lacy J.
DYEAR=2012
DGENRE=Country
TTITLE0=I'm A Survivor
TTITLE1=Walking Wounded
TTITLE2=A Diamond All The Time
TTITLE3=Still Crazy After All These Years
TTITLE4=Old Friends
TTITLE5=Turn To The One
TTITLE6=The Heart
TTITLE7=Me And These Arms
TTITLE8=They Don't Make Them Like They Used To
TTITLE9=Hard Luck Ace
TTITLE10=Don't Try To Tell Me (Nothin's Goin'on)
TTITLE11=Black Coffee
TTITLE12=Where Did We Go Right?
TTITLE13=Turn To A Little 3rd Rate Romance
TTITLE14=Long Way Down
TTITLE15=Ain't No Question
TTITLE16=Lonesome (As The Night Is Long)
TTITLE17=Walk That Line
TTITLE18=Shaky Ground (duet with Glen Campbell)
TTITLE19=That Road Still Looks Real Good To Me
EXTD=
EXTT0=
EXTT1=
EXTT2=
EXTT3=
EXTT4=
EXTT5=
EXTT6=
EXTT7=
EXTT8=
EXTT9=
EXTT10=
EXTT11=
EXTT12=
EXTT13=
EXTT14=
EXTT15=
EXTT16=
EXTT17=
EXTT18=
EXTT19=
PLAYORDER=
